<svg xmlns="http://www.w3.org/2000/svg" viewBox="0 0 605.23 707.93"><defs><style>.cls-1{fill:#418fcc;}.cls-2{fill:#323438;}</style></defs><title>Asset 1</title><g id="Layer_2" data-name="Layer 2"><g id="Layer_1-2" data-name="Layer 1"><path class="cls-1" d="M127.14,59.65C96.23,45.47,67.05,61.47,54.68,81,44,97.79,42.91,118.05,59.22,133.3c1.34,1.26,2,3.72,2.17,5.68,1,12.69,3,25,9.64,36.22,6.11,10.4,14.6,16.94,26.71,17.56,8.33.42,14.86,3.6,20.82,9.2,5.69,5.35,11.95,10.1,18,15.08,19.9,16.4,48.08,14.12,64-6.18,6.38-8.12,10.72-17.91,15.52-27.17,1.46-2.82,2.64-3.83,5.87-3.65,5.45.31,11.08.56,16.4-.43,16-3,25.67-14.86,27.08-33.79.7-9.41-.19-18.93-.39-28.4,0-1.63-.26-3.26-.44-5.36,9.52,1.47,16,6.2,19.94,14.45,14.57,30.49-2.73,64.38-36.63,70.08-9.93,1.66-15.36,4.41-19.55,14.66-8.46,20.69-26.67,30.87-47.94,35.08-18.89,3.73-37.53,2.81-54.84-6.89a50.08,50.08,0,0,1-22-23.8c-1.21-2.74-2.69-3.54-5.64-3.49-21.74.35-34.83-9-42.28-29.49-7-19.22-13.54-38.75-24.5-56.15C10.56,93.81,27.83,47,73.45,36.06c14.15-3.39,28.1-1.79,42,1.47,1.49.34,4.28-.2,4.83-1.21,11-20.37,29.23-29.9,51-33.82,19.89-3.58,39.81-3.58,59.46,1.75,18,4.88,32.11,15.05,40.81,32.41,12.21-5.85,24.78-6.87,37.7-4.77,13.59,2.21,25.91,7.34,36.56,16.12,2.2,1.81,3.93,2.28,6.68,1.3,13.56-4.83,27.46-4.94,41.4-2,25.67,5.35,47.21,32.71,46.58,59-.2,8.13-3.08,15-10.11,19.53-1.19.76-4.31.61-5-.28a39,39,0,0,1-5.7-10.2c-1-2.89-1-6.26-.9-9.4.57-15.84-8-25.91-20.88-33.11-17.42-9.76-32.46-9.65-52.38-.29-22.83-21.69-48.93-25-78.21-15.35-8.08-10.81-18.72-19.21-32-23.69-24.54-8.29-49.41-8.84-74.17-1.22C146.46,36.77,135.15,46.14,127.14,59.65Z"/><path class="cls-2" d="M29.92,175.25a2.91,2.91,0,0,1,5.51-1,76.77,76.77,0,0,0,3.93,7.31c4.38,7,9.37,13.64,14.21,20.35,1.45,2,3.31,3.74,4.92,5.65a16.91,16.91,0,0,1,4.23,13.67c-5.19,49-10.42,98-14.85,147.13C42.85,424,38,479.59,38.05,535.46c0,29.64,1.28,59.25,5.26,88.74,2.17,16.09,9.62,26.17,25.79,29.11,25,4.55,50,9.79,75.13,13.28A618.59,618.59,0,0,0,247,671.73,687.66,687.66,0,0,0,404.31,649a10.06,10.06,0,0,0,7-5.59c7.58-15.08,11.28-31.27,13.63-47.81,3.57-25.09,6.53-50.33,4.33-75.67-3.19-36.67-7.16-73.27-11.06-109.88-3.71-34.77-7.71-69.52-11.69-104.27-4.82-42-9.81-84-14.55-126.07-.42-3.73-1.94-4.53-5.28-4.79-28.73-2.24-57.44-4.65-86.17-7h0a2.91,2.91,0,0,1-2.61-3.17q1.41-15.24,2.78-30.06a2.9,2.9,0,0,1,2.86-2.63c5.77-.06,11.37-.28,16.94.07,34.42,2.13,68.82,4.52,103.24,6.59,4.05.24,5.27,2.09,5.32,5.43.06,4.15-.23,8.31-.22,12.46,0,6.46-.12,12.94.35,19.37.28,3.82,2.65,5.73,6.93,6.34,24.39,3.47,49,6,73,11.33,45.21,10,72.36,40,86.31,83,9.88,30.45,11.57,61.7,8.2,93.36C599.92,405,591,438.38,574.36,469.49c-11.62,21.79-26,41.4-45.91,56.58-8.9,6.8-19,10.87-29.28,14.78-6.68,2.55-13.35,5.2-19.84,8.19-9.37,4.31-15.88,11.36-16.9,21.89-1.89,19.54-3.13,39.15-4.79,58.71-.59,7-1.48,13.9-2.49,20.81-2.3,15.83-12.29,24.62-26.78,29.77-24,8.51-48.82,13.11-73.75,17.49a669.2,669.2,0,0,1-134.35,10A853.62,853.62,0,0,1,45.73,684.92c-1.61-.39-3.18-1-4.81-1.31-15.67-2.86-23.79-13.17-28.22-27.67-5-16.57-6.95-33.57-7.78-50.72C3.07,567,.51,528.7,0,490.42c-.5-41.33,3.33-82.53,8.14-123.59C14,317,20,267.27,25.67,217.47,27.26,203.62,28.53,189.74,29.92,175.25ZM470,490.58a2.91,2.91,0,0,0,3.25,2.51c1.39-.17,2.59-.32,3.77-.57,20.77-4.37,35.08-17.6,46.46-34.5,17.91-26.61,26.67-56.38,28.83-88.13,1.77-26.06-.66-51.55-12.4-75.46-18.82-38.34-52.43-50.24-90.42-44.08-6.63,1.08-8.65,3.76-8,10.62,2,20.2,3.85,40.43,6.39,60.57,5.69,45.07,11.75,90.1,17.66,135.15C467,467.8,468.48,478.91,470,490.58Z"/><path class="cls-1" d="M201.43,569.12c-1.38-1.48-3.51-2.27-6.41-2.37l-8.14-.34,0,16.22L195,583c5.66.23,8.5-2.4,8.5-7.8A8.52,8.52,0,0,0,201.43,569.12Z"/><path class="cls-1" d="M342.05,585.37c5-.66,9.95-1.36,14.92-2.13l0-20.43Q349.49,574,342.05,585.37Z"/><path class="cls-1" d="M405,470.09c-4.14-37.92-8.23-75.84-12.58-113.74-2.53-22-5.52-44-8.33-65.92-.36-2.76-.4-5.27-4.64-5.47-28.79-1.38-57.56-4.12-86.35-4.41-52-.51-104,.38-156,.71l-.65,0a4.08,4.08,0,0,0-3.7,3.42q-12.23,71.24-24.32,141.76l-10.12-.66c-1.9-45.68.5-91.43,1.16-137.16A4.13,4.13,0,0,0,95,284.47L80,285.86a4,4,0,0,0-3.67,3.51v0c-2.66,23.67-6,47.29-7.81,71C65,406.6,61.67,452.81,59.76,499.06c-1.47,35.6-.95,71.32,3.79,106.79,2.84,21.3,5.55,24.78,26.31,30.06,33.72,8.57,68.2,12,102.83,13.85,43.56,2.33,86.94-.13,130.13-6C343.43,640.92,364,638,384,631.88c10.9-3.31,16.91-9.69,18.65-21.25C409.71,563.86,410.13,517,405,470.09ZM127.11,589.54c0,5-1.34,8.65-4,11s-6.27,3.11-10.9,2.28a19.4,19.4,0,0,1-11.88-6.65Q96,590.92,96,582.87c3.21.6,6.44,1.17,9.66,1.71a11,11,0,0,0,1.56,6.18,6.61,6.61,0,0,0,4.62,2.86q2.79.46,4.11-1a6.54,6.54,0,0,0,1.34-4.45l.06-35.95c3.28.35,6.57.69,9.85,1Q127.15,571.37,127.11,589.54Zm40.62,12.82a12.26,12.26,0,0,1-5.62,5,17.07,17.07,0,0,1-9,1.17,23.55,23.55,0,0,1-9.37-2.94,19,19,0,0,1-6.59-6.23,17.94,17.94,0,0,1-2.81-8.59q5.23.65,10.49,1.21a9.65,9.65,0,0,0,2.4,5.56,8.11,8.11,0,0,0,5.48,2.68,5.63,5.63,0,0,0,4.73-1.29,5.81,5.81,0,0,0,1.66-4.37,6.67,6.67,0,0,0-1.32-4.18,10.89,10.89,0,0,0-3.35-2.87c-1.36-.77-3.22-1.69-5.6-2.76a59,59,0,0,1-7.54-4,16.58,16.58,0,0,1-5-5.14,14.71,14.71,0,0,1-2-8.08c0-4.45,1.54-7.81,4.6-10.11s7.11-3.27,12.15-2.89c5.22.4,9.39,2,12.49,4.92a16.79,16.79,0,0,1,5.26,11.13q-5.33-.35-10.65-.76a8.74,8.74,0,0,0-2.23-4.83,7.25,7.25,0,0,0-5-2.21,5.92,5.92,0,0,0-4.41,1.15,5.16,5.16,0,0,0-1.69,4.26,6.09,6.09,0,0,0,1.28,3.93,11.19,11.19,0,0,0,3.28,2.78,54.78,54.78,0,0,0,5.42,2.64,79.59,79.59,0,0,1,7.73,4,15.64,15.64,0,0,1,5.07,5.1,15.36,15.36,0,0,1,2.08,8.41A14.28,14.28,0,0,1,167.73,602.36Zm35,9.08q-5.78-10.62-11.55-21.28l-4.35-.21q0,10.37,0,20.74-5-.27-9.9-.62L177,557q9.42.49,18.85.82c5.75.2,10.13,1.82,13.15,4.93s4.51,7.12,4.51,12.07a15.93,15.93,0,0,1-3.13,10.08,14.51,14.51,0,0,1-9,5.19q6.16,10.88,12.34,21.72C210.05,611.69,206.4,611.58,202.74,611.44Zm28.12-22v-8.88q14.92.06,29.84-.35c0,3,0,5.91,0,8.87Q245.79,589.46,230.86,589.4ZM269.1,501H193.05V424.94h54.4c-1.81,2.24-3.58,4.51-5.32,6.78h-42.3v62.5h62.49V449.94q3.3-4.37,6.78-8.66Zm-6.78-62.09a284.66,284.66,0,0,0-26.78,39.66L231.43,486l-6.34-5.67c-5.25-4.69-18.34-21.49-21.15-29.9l12.86-4.29c1.16,3.48,6.71,11.6,11.59,17.69a307,307,0,0,1,22.35-32.11q2.7-3.42,5.5-6.78a321.64,321.64,0,0,1,32.44-33.66l9,10.11a306.46,306.46,0,0,0-28.6,29.31Q265.64,434.75,262.32,438.9Zm29,171.18-.09-43.18c-2.48.14-4.95.26-7.43.38,0-3.31,0-6.63,0-9.95q8.9-.41,17.8-1l.12,52.91Q296.55,609.73,291.35,610.08Zm23.13-2q0-21.37-.11-42.74c-2.47.2-4.94.38-7.42.56,0-3.29,0-6.58,0-9.87q8.9-.59,17.78-1.32.06,26.1.13,52.22C321.39,607.35,317.94,607.74,314.48,608.09Zm58-18.92q-3.19.63-6.39,1.22c0,3.35,0,6.7,0,10.05q-4.94,1-9.87,1.86c0-3.4,0-6.79,0-10.19q-12.07,2-24.2,3.47c0-2.86,0-5.73,0-8.6,7.85-12.08,15.69-24.07,23.54-35.83q5.27-.58,10.53-1.22l0,31.83q3.2-.54,6.39-1.13Z"/></g></g></svg>
